# Blender 5.1.2
# www.blender.org
mtllib Collar.mtl
o Circle
v 0.000000 0.150657 -0.400000
v -0.153073 0.150657 -0.369552
v -0.282843 0.150657 -0.282843
v -0.369552 0.150657 -0.153073
v -0.400000 0.150657 0.000000
v -0.369552 0.150657 0.153073
v -0.282843 0.150657 0.282843
v -0.153073 0.150657 0.369552
v 0.000000 0.150657 0.400000
v 0.153073 0.150657 0.369552
v 0.282843 0.150657 0.282843
v 0.369552 0.150657 0.153073
v 0.400000 0.150657 0.000000
v 0.369552 0.150657 -0.153073
v 0.282843 0.150657 -0.282843
v 0.153073 0.150657 -0.369552
v 0.000000 0.280621 -0.400000
v -0.153073 0.280621 -0.369552
v -0.282843 0.280621 -0.282843
v -0.369552 0.280621 -0.153073
v -0.400000 0.280621 0.000000
v -0.369552 0.280621 0.153073
v -0.282843 0.280621 0.282843
v -0.153073 0.280621 0.369552
v 0.000000 0.280621 0.400000
v 0.153073 0.280621 0.369552
v 0.282843 0.280621 0.282843
v 0.369552 0.280621 0.153073
v 0.400000 0.280621 0.000000
v 0.369552 0.280621 -0.153073
v 0.282843 0.280621 -0.282843
v 0.153073 0.280621 -0.369552
v -0.125819 0.162227 -0.303755
v 0.000000 0.162227 -0.328782
v -0.232484 0.162227 -0.232484
v -0.303755 0.162227 -0.125819
v -0.328782 0.162227 0.000000
v -0.303755 0.162227 0.125819
v -0.232484 0.162227 0.232484
v -0.125819 0.162227 0.303755
v 0.000000 0.162227 0.328782
v 0.125819 0.162227 0.303755
v 0.232484 0.162227 0.232484
v 0.303755 0.162227 0.125819
v 0.328782 0.162227 0.000000
v 0.303755 0.162227 -0.125819
v 0.232484 0.162227 -0.232484
v 0.125819 0.162227 -0.303755
v -0.125819 0.269051 -0.303755
v 0.000000 0.269051 -0.328782
v -0.232484 0.269051 -0.232484
v -0.303755 0.269051 -0.125819
v -0.328782 0.269051 0.000000
v -0.303755 0.269051 0.125819
v -0.232484 0.269051 0.232484
v -0.125819 0.269051 0.303755
v 0.000000 0.269051 0.328782
v 0.125819 0.269051 0.303755
v 0.232484 0.269051 0.232484
v 0.303755 0.269051 0.125819
v 0.328782 0.269051 0.000000
v 0.303755 0.269051 -0.125819
v 0.232484 0.269051 -0.232484
v 0.125819 0.269051 -0.303755
v -0.287800 0.141650 -0.290262
v -0.158030 0.141650 -0.376971
v -0.158030 0.141650 0.376971
v -0.287800 0.141650 0.290262
v 0.376971 0.141650 0.158030
v 0.290262 0.141650 0.287800
v 0.290262 0.141650 -0.287800
v 0.376971 0.141650 -0.158030
v -0.287800 0.289628 -0.290262
v -0.158030 0.289628 -0.376971
v -0.158030 0.289628 0.376971
v -0.287800 0.289628 0.290262
v 0.376971 0.289628 0.158030
v 0.290262 0.289628 0.287800
v 0.290262 0.289628 -0.287800
v 0.376971 0.289628 -0.158030
v -0.227342 0.153561 -0.224789
v -0.120678 0.153561 -0.296060
v -0.120678 0.153561 0.296060
v -0.227342 0.153561 0.224789
v 0.296060 0.153561 0.120678
v 0.224789 0.153561 0.227342
v 0.224789 0.153561 -0.227342
v 0.296060 0.153561 -0.120678
v -0.227342 0.277717 -0.224789
v -0.120678 0.277717 -0.296060
v -0.120678 0.277717 0.296060
v -0.227342 0.277717 0.224789
v 0.296060 0.277717 0.120678
v 0.224789 0.277717 0.227342
v 0.224789 0.277717 -0.227342
v 0.296060 0.277717 -0.120678
v 0.315172 0.060674 -0.039572
v 0.322673 0.089850 -0.031711
v 0.340655 0.109734 -0.015879
v 0.364298 0.114997 0.003682
v 0.387269 0.104228 0.021730
v 0.403411 0.080315 0.033429
v 0.408401 0.049663 0.035645
v 0.400900 0.020486 0.027784
v 0.382918 0.000603 0.011952
v 0.359275 -0.004660 -0.007609
v 0.336304 0.006108 -0.025657
v 0.320162 0.030022 -0.037356
v 0.364919 0.105797 -0.009084
v 0.363960 0.102068 -0.010089
v 0.367218 0.108339 -0.007060
v 0.370241 0.109012 -0.004560
v 0.373177 0.107635 -0.002253
v 0.375241 0.104578 -0.000757
v 0.375879 0.100660 -0.000474
v 0.374920 0.096930 -0.001479
v 0.372621 0.094388 -0.003503
v 0.369598 0.093715 -0.006003
v 0.366662 0.095092 -0.008310
v 0.364598 0.098149 -0.009806
v 0.328886 0.090310 -0.039345
v 0.321385 0.061133 -0.047206
v 0.346868 0.110193 -0.023513
v 0.370511 0.115456 -0.003952
v 0.393482 0.104688 0.014096
v 0.409624 0.080774 0.025796
v 0.414614 0.050122 0.028012
v 0.407113 0.020946 0.020151
v 0.389131 0.001062 0.004319
v 0.365488 -0.004201 -0.015242
v 0.342517 0.006568 -0.033290
v 0.326375 0.030481 -0.044990
v 0.367267 0.164168 -0.065539
v 0.367267 0.164168 0.065539
v 0.367091 0.117822 0.046343
v 0.367018 0.098625 -0.000000
v 0.367091 0.117822 -0.046343
v 0.367254 0.160765 -0.058492
v 0.367254 0.160765 0.058492
v 0.367097 0.119403 0.041360
v 0.367032 0.102270 -0.000000
v 0.367097 0.119403 -0.041360
v 0.373892 0.117796 0.046343
v 0.374068 0.164142 0.065539
v 0.373819 0.098600 -0.000000
v 0.373892 0.117796 -0.046343
v 0.374068 0.164142 -0.065539
v 0.373898 0.119377 0.041360
v 0.374055 0.160739 0.058492
v 0.373833 0.102244 -0.000000
v 0.373898 0.119377 -0.041360
v 0.374055 0.160739 -0.058492
vn 0.7815 0.0016 -0.6239
vn 0.7787 0.0017 -0.6274
vn 0.7842 0.0015 -0.6205
vn 0.7776 0.0017 -0.6287
vn 0.6274 -0.0017 -0.7787
vn 0.6274 0.0017 -0.7787
vn 0.6205 0.0015 -0.7842
vn 0.6205 -0.0015 -0.7842
vn -0.5556 -0.0000 0.8315
vn -0.3827 -0.0000 0.9239
vn 0.1951 -0.0000 -0.9808
vn -0.0000 -0.0000 -1.0000
vn -0.0000 -0.0000 1.0000
vn 0.1951 -0.0000 0.9808
vn -0.3827 -0.0000 -0.9239
vn -0.4832 0.0016 0.8755
vn -0.4793 0.0017 0.8777
vn -0.4871 0.0015 0.8734
vn -0.4778 0.0017 0.8784
vn -0.5556 -0.0000 -0.8315
vn 0.8315 -0.0000 0.5556
vn 0.9239 -0.0000 0.3827
vn 0.7815 0.0016 0.6239
vn 0.7815 -0.0016 0.6239
vn 0.7776 -0.0017 0.6287
vn 0.7776 0.0017 0.6287
vn 1.0000 -0.0000 -0.0000
vn -0.9808 -0.0000 -0.1951
vn -1.0000 -0.0000 -0.0000
vn 0.9239 -0.0000 -0.3827
vn -0.9808 -0.0000 0.1951
vn 0.8315 -0.0000 -0.5556
vn 0.7787 -0.0017 -0.6274
vn 0.7842 -0.0015 -0.6205
vn -0.4832 -0.0016 -0.8755
vn -0.4793 -0.0017 -0.8777
vn -0.4871 -0.0015 -0.8734
vn -0.4778 -0.0017 -0.8784
vn 0.5556 -0.0000 -0.8315
vn 0.3827 -0.0000 -0.9239
vn -0.1951 -0.0000 0.9808
vn -0.1951 -0.0000 -0.9808
vn 0.3827 -0.0000 0.9239
vn 0.6239 -0.0016 0.7815
vn 0.6239 0.0016 0.7815
vn 0.6287 0.0017 0.7776
vn 0.6287 -0.0017 0.7776
vn 0.5556 -0.0000 0.8315
vn -0.8315 -0.0000 -0.5556
vn -0.9239 -0.0000 -0.3827
vn 0.6239 0.0016 -0.7815
vn 0.6287 0.0017 -0.7776
vn 0.9808 -0.0000 0.1951
vn -0.9239 -0.0000 0.3827
vn 0.9808 -0.0000 -0.1951
vn -0.8315 -0.0000 0.5556
vn -0.0319 0.9866 0.1603
vn -0.0000 0.9871 0.1604
vn -0.1359 -0.9866 0.0908
vn -0.1481 -0.9871 0.0614
vn 0.0614 0.9871 0.1481
vn -0.4832 0.0016 -0.8755
vn -0.4778 0.0017 -0.8784
vn 0.0908 0.9866 0.1359
vn -0.0000 -0.9871 0.1604
vn -0.0319 -0.9866 0.1603
vn -0.8777 0.0017 0.4793
vn -0.8755 0.0016 0.4832
vn -0.8784 0.0017 0.4778
vn -0.8734 0.0015 0.4871
vn 0.0614 -0.9871 0.1481
vn 0.1603 0.9866 0.0319
vn 0.1604 0.9871 -0.0000
vn 0.0908 -0.9866 0.1359
vn 0.1603 0.9866 -0.0319
vn -0.8777 -0.0017 0.4793
vn -0.8734 -0.0015 0.4871
vn -0.4832 -0.0016 0.8755
vn -0.4778 -0.0017 0.8784
vn -0.0000 0.9871 -0.1604
vn -0.0319 0.9866 -0.1603
vn 0.1604 -0.9871 -0.0000
vn 0.1603 -0.9866 0.0319
vn 0.0908 0.9866 -0.1359
vn 0.0614 0.9871 -0.1481
vn 0.6274 0.0017 0.7787
vn 0.6205 0.0015 0.7842
vn 0.1603 -0.9866 -0.0319
vn -0.1359 0.9866 -0.0908
vn -0.1481 0.9871 -0.0614
vn -0.4793 -0.0017 0.8777
vn -0.4871 -0.0015 0.8734
vn -0.0319 -0.9866 -0.1603
vn -0.0000 -0.9871 -0.1604
vn -0.1604 0.9871 -0.0000
vn 0.0614 -0.9871 -0.1481
vn 0.0908 -0.9866 -0.1359
vn 0.6239 -0.0016 -0.7815
vn 0.6287 -0.0017 -0.7776
vn -0.1481 0.9871 0.0614
vn -0.1481 -0.9871 -0.0614
vn -0.1359 -0.9866 -0.0908
vn -0.1359 0.9866 0.0908
vn -0.1604 -0.9871 -0.0000
vn -0.4793 0.0017 -0.8777
vn -0.4871 0.0015 -0.8734
vn -0.0745 -0.9910 0.1115
vn 0.1115 0.9910 0.0745
vn 0.1115 -0.9910 0.0745
vn 0.1115 0.9910 -0.0745
vn -0.0745 0.9910 -0.1115
vn 0.1115 -0.9910 -0.0745
vn -0.0745 -0.9910 -0.1115
vn -0.0745 0.9910 0.1115
vn -0.8755 -0.0016 -0.4832
vn -0.8755 0.0016 -0.4832
vn -0.8784 0.0017 -0.4778
vn -0.8784 -0.0017 -0.4778
vn 0.6274 -0.0017 0.7787
vn 0.6205 -0.0015 0.7842
vn -0.8777 -0.0017 -0.4793
vn -0.8734 -0.0015 -0.4871
vn -0.8755 -0.0016 0.4832
vn -0.8784 -0.0017 0.4778
vn 0.7787 0.0017 0.6274
vn 0.7842 0.0015 0.6205
vn 0.7787 -0.0017 0.6274
vn 0.7842 -0.0015 0.6205
vn -0.8777 0.0017 -0.4793
vn -0.8734 0.0015 -0.4871
vn 0.7815 -0.0016 -0.6239
vn 0.7776 -0.0017 -0.6287
vn -0.3513 0.9072 -0.2314
vn 0.0418 0.9947 0.0939
vn -0.0418 -0.9947 -0.0939
vn -0.4237 -0.8157 -0.3939
vn 0.7750 -0.0915 0.6253
vn 0.6503 -0.5766 0.4946
vn 0.4237 0.8157 0.3939
vn -0.6921 -0.4181 -0.5884
vn -0.7750 0.0915 -0.6253
vn -0.6503 0.5766 -0.4946
vn 0.3513 -0.9072 0.2314
vn 0.6921 0.4181 0.5884
vn 0.6306 0.0466 -0.7747
vn -1.0000 0.0038 -0.0000
vn 1.0000 -0.0038 -0.0000
vn 0.0035 0.9239 -0.3827
vn 0.0034 0.9005 0.4348
vn -0.0035 -0.9239 -0.3827
vn 0.0035 0.9239 0.3827
vn -0.0015 -0.3827 -0.9239
vn 0.0034 0.9005 -0.4348
vn -0.0015 -0.3827 0.9239
vn 0.0015 0.3827 0.9239
vn 0.0015 0.3827 -0.9239
vn -0.0035 -0.9239 0.3827
vt 0.742719 0.591661
vt 0.310626 0.691142
vt 0.785296 0.610060
vt 0.735309 0.608206
s 1
usemtl Material.001
f 51/1/1 19/1/2 73/1/3 89/1/4
f 11/1/5 27/1/6 78/1/7 70/1/8
f 15/2/9 31/2/9 32/2/10 16/2/10
f 8/2/11 24/2/11 25/2/12 9/2/12
f 1/2/13 17/2/13 18/2/14 2/2/14
f 16/2/10 32/2/10 17/2/13 1/2/13
f 9/2/12 25/2/12 26/2/15 10/2/15
f 60/1/16 28/1/17 77/1/18 93/1/19
f 10/2/15 26/2/15 27/2/20 11/2/20
f 3/2/21 19/2/21 20/2/22 4/2/22
f 55/1/23 39/1/24 84/1/25 92/1/26
f 4/2/22 20/2/22 21/2/27 5/2/27
f 12/2/28 28/2/28 29/2/29 13/2/29
f 5/2/27 21/2/27 22/2/30 6/2/30
f 13/2/29 29/2/29 30/2/31 14/2/31
f 6/2/30 22/2/30 23/2/32 7/2/32
f 19/1/2 3/1/33 65/1/34 73/1/3
f 46/1/35 14/1/36 72/1/37 88/1/38
f 47/2/39 48/2/40 64/2/40 63/2/39
f 40/2/41 41/2/13 57/2/13 56/2/41
f 34/2/12 33/2/42 49/2/42 50/2/12
f 48/2/40 34/2/12 50/2/12 64/2/40
f 41/2/13 42/2/43 58/2/43 57/2/13
f 47/2/44 63/2/45 95/2/46 87/2/47
f 42/2/43 43/2/48 59/2/48 58/2/43
f 35/2/49 36/2/50 52/2/50 51/2/49
f 27/1/6 59/1/51 94/1/52 78/1/7
f 36/2/50 37/2/29 53/2/29 52/2/50
f 44/2/53 45/2/27 61/2/27 60/2/53
f 37/2/29 38/2/54 54/2/54 53/2/29
f 45/2/27 46/2/55 62/2/55 61/2/27
f 38/2/54 39/2/56 55/2/56 54/2/54
f 8/2/57 9/2/58 41/2/58 40/2/57
f 23/2/59 22/2/60 54/2/60 55/2/59
f 9/2/58 10/2/61 42/2/61 41/2/58
f 62/1/62 46/1/35 88/1/38 96/1/63
f 10/2/61 11/2/64 43/2/64 42/2/61
f 25/2/65 24/2/66 56/2/66 57/2/65
f 18/1/67 49/1/68 90/1/69 74/1/70
f 26/2/71 25/2/65 57/2/65 58/2/71
f 12/2/72 13/2/73 45/2/73 44/2/72
f 27/2/74 26/2/71 58/2/71 59/2/74
f 13/2/73 14/2/75 46/2/75 45/2/73
f 2/1/76 18/1/67 74/1/70 66/1/77
f 44/2/78 60/2/16 93/2/19 85/2/79
f 1/2/80 2/2/81 33/2/81 34/2/80
f 29/2/82 28/2/83 60/2/83 61/2/82
f 15/2/84 16/2/85 48/2/85 47/2/84
f 63/1/45 31/1/86 79/1/87 95/1/46
f 30/2/88 29/2/82 61/2/82 62/2/88
f 16/2/85 1/2/80 34/2/80 48/2/85
f 3/2/89 4/2/90 36/2/90 35/2/89
f 12/1/91 44/1/78 85/1/79 69/1/92
f 18/2/93 17/2/94 50/2/94 49/2/93
f 4/2/90 5/2/95 37/2/95 36/2/90
f 32/2/96 31/2/97 63/2/97 64/2/96
f 59/1/51 43/1/98 86/1/99 94/1/52
f 5/2/95 6/2/100 38/2/100 37/2/95
f 17/2/94 32/2/96 64/2/96 50/2/94
f 20/2/101 19/2/102 51/2/102 52/2/101
f 6/2/100 7/2/103 39/2/103 38/2/100
f 21/2/104 20/2/101 52/2/101 53/2/104
f 30/1/105 62/1/62 96/1/63 80/1/106
f 22/2/60 21/2/104 53/2/104 54/2/60
f 72/3/56 80/3/56 79/3/56 71/3/56
f 68/3/39 76/3/39 75/3/39 67/3/39
f 66/3/48 74/3/48 73/3/48 65/3/48
f 70/3/49 78/3/49 77/3/49 69/3/49
f 88/3/32 87/3/32 95/3/32 96/3/32
f 84/3/9 83/3/9 91/3/9 92/3/9
f 82/3/20 81/3/20 89/3/20 90/3/20
f 86/3/21 85/3/21 93/3/21 94/3/21
f 75/3/107 76/3/107 92/3/107 91/3/107
f 70/3/108 69/3/108 85/3/108 86/3/108
f 77/3/109 78/3/109 94/3/109 93/3/109
f 72/3/110 71/3/110 87/3/110 88/3/110
f 66/3/111 65/3/111 81/3/111 82/3/111
f 79/3/112 80/3/112 96/3/112 95/3/112
f 73/3/113 74/3/113 90/3/113 89/3/113
f 68/3/114 67/3/114 83/3/114 84/3/114
f 40/2/115 56/2/116 91/2/117 83/2/118
f 15/1/119 47/1/44 87/1/47 71/1/120
f 8/1/121 40/1/115 83/1/118 67/1/122
f 33/1/123 2/1/76 66/1/77 82/1/124
f 28/1/17 12/1/91 69/1/92 77/1/18
f 23/1/125 55/1/23 92/1/26 76/1/126
f 14/1/36 30/1/105 80/1/106 72/1/37
f 39/1/24 7/1/127 68/1/128 84/1/25
f 31/1/86 15/1/119 71/1/120 79/1/87
f 49/2/68 33/2/123 82/2/124 90/2/69
f 56/1/116 24/1/129 75/1/130 91/1/117
f 7/1/127 23/1/125 76/1/126 68/1/128
f 3/1/33 35/1/131 81/1/132 65/1/34
f 43/1/98 11/1/5 70/1/8 86/1/99
f 24/1/129 8/1/121 67/1/122 75/1/130
f 35/2/131 51/2/1 89/2/4 81/2/132
f 99/4/133 100/4/134 124/4/134 123/4/133
f 106/4/135 107/4/136 131/4/136 130/4/135
f 103/4/137 104/4/138 128/4/138 127/4/137
f 100/4/134 101/4/139 125/4/139 124/4/134
f 107/4/136 108/4/140 132/4/140 131/4/136
f 97/4/141 98/4/142 121/4/142 122/4/141
f 104/4/138 105/4/143 129/4/143 128/4/138
f 101/4/139 102/4/144 126/4/144 125/4/139
f 108/4/140 97/4/141 122/4/141 132/4/140
f 98/4/142 99/4/133 123/4/133 121/4/142
f 105/4/143 106/4/135 130/4/135 129/4/143
f 102/4/144 103/4/137 127/4/137 126/4/144
f 109/4/145 110/4/145 122/4/145 121/4/145
f 111/4/145 109/4/145 121/4/145 123/4/145
f 112/4/145 111/4/145 123/4/145 124/4/145
f 113/4/145 112/4/145 124/4/145 125/4/145
f 114/4/145 113/4/145 125/4/145 126/4/145
f 115/4/145 114/4/145 126/4/145 127/4/145
f 116/4/145 115/4/145 127/4/145 128/4/145
f 117/4/145 116/4/145 128/4/145 129/4/145
f 118/4/145 117/4/145 129/4/145 130/4/145
f 119/4/145 118/4/145 130/4/145 131/4/145
f 120/4/145 119/4/145 131/4/145 132/4/145
f 110/4/145 120/4/145 132/4/145 122/4/145
f 136/4/146 141/4/146 142/4/146 137/4/146
f 134/4/146 139/4/146 140/4/146 135/4/146
f 137/4/146 142/4/146 138/4/146 133/4/146
f 135/4/146 140/4/146 141/4/146 136/4/146
f 145/4/147 146/4/147 151/4/147 150/4/147
f 144/4/147 143/4/147 148/4/147 149/4/147
f 146/4/147 147/4/147 152/4/147 151/4/147
f 143/4/147 145/4/147 150/4/147 148/4/147
f 141/4/148 140/4/148 148/4/148 150/4/148
f 133/2/149 138/2/149 152/2/149 147/2/149
f 136/4/150 137/4/150 146/4/150 145/4/150
f 142/4/151 141/4/151 150/4/151 151/4/151
f 137/4/152 133/4/152 147/4/152 146/4/152
f 139/2/153 134/2/153 144/2/153 149/2/153
f 134/4/154 135/4/154 143/4/154 144/4/154
f 138/4/155 142/4/155 151/4/155 152/4/155
f 140/4/156 139/4/156 149/4/156 148/4/156
f 135/4/157 136/4/157 145/4/157 143/4/157
